<svg xmlns="http://www.w3.org/2000/svg" viewBox="0 0 492 492" width="512" height="512"><path d="M27.656 284.582l-.768-.168h329.224L252.616 388.138c-5.068 5.064-7.848 11.924-7.848 19.124 0 7.2 2.78 14.012 7.848 19.088l16.104 16.112c5.064 5.064 11.812 7.864 19.008 7.864 7.2 0 13.952-2.78 19.016-7.844l177.412-177.396c5.084-5.084 7.864-11.856 7.844-19.06.02-7.244-2.76-14.02-7.844-19.096L306.744 49.518c-5.064-5.06-11.812-7.844-19.016-7.844-7.196 0-13.944 2.788-19.008 7.844L252.616 65.63c-5.068 5.056-7.848 11.808-7.848 19.008 0 7.196 2.78 13.592 7.848 18.652L357.28 207.594H27.288C12.46 207.594 0 220.374 0 235.194v22.788c0 14.82 12.828 26.6 27.656 26.6z" data-original="#000000" class="active-path" data-old_color="#000000" fill="#FFF"/></svg>